<?xml version="1.0" standalone="no"?><!DOCTYPE svg PUBLIC "-//W3C//DTD SVG 1.1//EN" "http://www.w3.org/Graphics/SVG/1.1/DTD/svg11.dtd"><svg t="1537709496753" class="icon" style="" viewBox="0 0 1024 1024" version="1.1" xmlns="http://www.w3.org/2000/svg" p-id="904" xmlns:xlink="http://www.w3.org/1999/xlink" width="200" height="200"><defs><style type="text/css"></style></defs><path d="M1005.9 375.6c-0.1-0.1-0.2-0.3-0.3-0.4l-252.3-288.1c-12.2-14.6-29.4-23-47.5-23.1-0.1 0-0.2 0-0.3 0-18.1 0-35.4 8.4-47.8 23-11.1 12.6-17.1 29.5-17.1 47.6l0 121.5L544 256.1c-17.7 0-32 14.3-32 32s14.3 32 32 32l128.7 0c17.7 0 32-14.3 32-32l0-153.5c0-2.2 0.5-3.9 0.9-4.8l251.6 287.3c2.5 3.1 2.5 9.5 0 12.6l-251.4 287.4c-0.6-1.1-1.1-2.8-1.1-5.1L704.7 545.3c0-17.7-14.3-32-32-32L512 513.3 383.3 513.3 383.3 378.6c0-38.8-29.1-70.4-64.8-70.4-18.4 0-35.8 8.2-47.8 22.4L19.4 619.1c-0.1 0.1-0.2 0.2-0.3 0.3-22.7 26.8-22.7 68.7 0 95.5 0.1 0.2 0.3 0.4 0.5 0.5l251.2 284.1c12.2 14.6 29.4 23 47.4 23.1 0.1 0 0.2 0 0.3 0 18.1 0 35.4-8.4 47.8-23 11.1-12.6 17.1-29.5 17.1-47.6L383.4 832 482 832c17.7 0 32-14.3 32-32s-14.3-32-32-32L351.3 768c-17.7 0-32 14.3-32 32l0 152.2c0 2.2-0.5 3.9-0.9 4.8L67.8 673.5c-2.4-3.1-2.4-9.5 0-12.6L318.2 373.6c0.6 1.1 1.1 2.8 1.1 5.1l0 166.7c0 17.7 14.3 32 32 32L512 577.4l128.7 0 0 134.7c0 38.8 29.1 70.4 64.8 70.4 18.4 0 35.8-8.1 47.7-22.4l252.3-288.5c0.1-0.1 0.2-0.3 0.3-0.4C1028.6 444.4 1028.6 402.4 1005.9 375.6z" p-id="905"></path></svg>