<?xml version="1.0" standalone="no"?><!DOCTYPE svg PUBLIC "-//W3C//DTD SVG 1.1//EN" "http://www.w3.org/Graphics/SVG/1.1/DTD/svg11.dtd"><svg t="1541361927389" class="icon" style="" viewBox="0 0 1024 1024" version="1.1" xmlns="http://www.w3.org/2000/svg" p-id="2075" xmlns:xlink="http://www.w3.org/1999/xlink" width="200" height="200"><defs><style type="text/css"></style></defs><path d="M494.419 660.167l2.535 102.876c6.721 0.832 12.652 2.144 20.163 2.144 4.629 0 7.861-0.809 12.047-1.094l1.467-95.393c-3.605-0.7-6.721-1.532-10.629-2.341C510.746 664.193 502.606 662.181 494.419 660.167M423.069 539.177c-0.417 8.051 1.814 15.251 6.791 21.66 2.395 3.282 5.582 6.17 9.373 8.751l2.906-62.027C430.325 516.86 423.72 527.253 423.069 539.177M510.001 490.594c-5.721 0-9.628 0.875-14.791 1.324l-1.396 96.662c7.047 1.881 14.954 3.938 23.839 6.126 4.861 1.313 8.837 2.276 13.372 3.589l-0.885-105.731C523.537 491.765 517.607 490.485 510.001 490.594M753.892 369.844c-39.933-36.123-137.213-90.7-146.401-118.815-0.975-2.636-1.79-5.086-2.558-7.439 8.605-0.82 15.163-5.798 15.163-11.87 0-6.673-7.953-12.034-17.721-12.034l-0.931 0c2.325-25.992 28.558-40.192 54.606-122.84-103.56-29.93-101.536-6.793-180.422 29.909-58.42 11.541-54.35-63.722-128.142-28.99 37.535 75.319 68.328 95.556 75.165 122.074-8.536 0.876-15.117 5.809-15.117 11.881 0 6.071 6.581 10.994 15.117 11.87-0.233 1.215-0.373 2.308-0.744 3.611-7.955 29.525-108.957 83.851-151.818 122.643-94.003 85.197-283.031 554.448 60.071 565.781 161.353 5.252 181.796 5.252 181.796 5.252s20.536 0 181.865-5.252C1036.944 924.292 847.916 455.041 753.892 369.844M664.89 702.35c-2.095 17.986-9.419 34.613-22.002 50.323-12.651 15.184-29.768 27.217-51.536 36.144-5.024 2.101-10.651 3.106-15.954 4.726l-2.488 33.344c-0.604 9.145-10.814 16.956-23.049 17.24-12.14 0.263-21.954-6.891-21.814-16.059l0.419-26.737c-3.72 0.132-7.07 0.787-10.908 0.787-6.931-0.087-13.093-0.546-19.558-1.05l0.697 26.955c0.232 9.036-9.488 16.234-21.675 15.864-12.14-0.263-22.373-8.117-23.024-17.351l-2.721-33.474c-14.395-4.465-27.21-10.087-37.814-17.328-24.303-17.242-41.839-45.99-51.792-79.51-1.581-14.878 9.117-26.21 24.606-25.007 15.675 1.203 30 15.03 31.349 30.39 5.116 20.217 14.744 32.425 29.233 43.495l-7-101.738c-9.698-3.501-18.186-7.045-24.233-10.063-17.489-9.146-30.373-21.157-38.606-35.948-8.209-14.813-11.674-30.652-10.744-47.827 0.884-15.557 5.279-29.941 13.186-43.07 7.908-13.215 18.396-24.286 31.373-33.311 8.791-6.225 20.838-11.694 35.372-16.672l3.373-36.922c0.931-9.9 11.907-18.433 24.791-18.991 12.93-0.546 23.186 7.078 22.931 16.803l-0.885 29.975c3.117-0.11 6.14-0.547 9.327-0.547 8.488-0.065 15.884 0.766 23.721 1.423l-0.581-30.971c-0.233-9.791 10.234-17.383 23.14-17 13.023 0.492 24.023 8.915 24.884 18.772l3.186 38.933c1.303 0.426 2.699 0.656 3.931 1.105 22.116 8.467 38.536 19.395 49.512 32.862 11.001 13.511 19.396 35.336 24.419 58.243 0.744 15.884-11.279 28.596-27.302 28.266-16.652-0.306-31.071-14.396-31.723-31.199-2.372-12.318-7.789-20.806-14.558-28.507l2.14 94.888c13.721 4.18 24.791 7.943 32.558 11.247 16.792 6.979 29.118 17.219 37.072 30.236C664.098 668.088 666.982 684.017 664.89 702.35M589.003 685.11c-1.163-0.743-3.325-1.489-5.046-2.189l-5.001 67.825c0.721-0.438 1.908-0.656 2.674-1.204 14.42-10.239 22.256-22.163 23.537-35.705C606.33 701.52 601.027 691.893 589.003 685.11" p-id="2076"></path></svg>