<?xml version="1.0" standalone="no"?><!DOCTYPE svg PUBLIC "-//W3C//DTD SVG 1.1//EN" "http://www.w3.org/Graphics/SVG/1.1/DTD/svg11.dtd"><svg t="1522992801108" class="icon" style="" viewBox="0 0 1024 1024" version="1.1" xmlns="http://www.w3.org/2000/svg" p-id="20375" xmlns:xlink="http://www.w3.org/1999/xlink" width="48" height="48"><defs><style type="text/css"></style></defs><path d="M853.333333 170.666667 170.666667 170.666667C149.333333 170.666667 132.266667 187.733333 132.266667 209.066667l0 379.733333c0 21.333333 17.066667 38.4 38.4 38.4l256 0-140.8 273.066667c-4.266667 8.533333 0 21.333333 8.533333 25.6 8.533333 4.266667 21.333333 0 25.6-8.533333l81.066667-157.866667c0 8.533333 8.533333 17.066667 21.333333 17.066667l55.466667 0 0 192c0 21.333333 17.066667 38.4 38.4 38.4s38.4-17.066667 38.4-38.4l0-192 55.466667 0c12.8 0 21.333333-8.533333 21.333333-17.066667l81.066667 157.866667c4.266667 8.533333 17.066667 12.8 25.6 8.533333 8.533333-4.266667 12.8-17.066667 8.533333-25.6L597.333333 627.2l256 0c21.333333 0 38.4-17.066667 38.4-38.4L891.733333 209.066667C891.733333 187.733333 874.666667 170.666667 853.333333 170.666667zM320 512c-64 0-115.2-51.2-115.2-115.2 0-64 51.2-115.2 115.2-115.2l0 115.2 115.2 0C435.2 460.8 384 512 320 512zM473.6 742.4 422.4 742.4c-4.266667 0-8.533333 0-12.8 4.266667l59.733333-119.466667 8.533333 0L477.866667 742.4zM567.466667 281.6c8.533333 0 17.066667 8.533333 17.066667 17.066667 0 8.533333-8.533333 17.066667-17.066667 17.066667-8.533333 0-17.066667-8.533333-17.066667-17.066667C550.4 290.133333 558.933333 281.6 567.466667 281.6zM567.466667 358.4c8.533333 0 17.066667 8.533333 17.066667 17.066667 0 8.533333-8.533333 17.066667-17.066667 17.066667-8.533333 0-17.066667-8.533333-17.066667-17.066667C550.4 366.933333 558.933333 358.4 567.466667 358.4zM567.466667 435.2c8.533333 0 17.066667 8.533333 17.066667 17.066667 0 8.533333-8.533333 17.066667-17.066667 17.066667-8.533333 0-17.066667-8.533333-17.066667-17.066667C550.4 443.733333 558.933333 435.2 567.466667 435.2zM618.666667 746.666667c-4.266667-4.266667-8.533333-4.266667-12.8-4.266667l-55.466667 0 0-115.2 8.533333 0L618.666667 746.666667zM797.866667 473.6l-153.6 0c-8.533333 0-17.066667-8.533333-17.066667-17.066667 0-8.533333 8.533333-17.066667 17.066667-17.066667l153.6 0c8.533333 0 17.066667 8.533333 17.066667 17.066667C814.933333 465.066667 806.4 473.6 797.866667 473.6zM797.866667 396.8l-153.6 0c-8.533333 0-17.066667-8.533333-17.066667-17.066667 0-8.533333 8.533333-17.066667 17.066667-17.066667l153.6 0c8.533333 0 17.066667 8.533333 17.066667 17.066667C814.933333 388.266667 806.4 396.8 797.866667 396.8zM797.866667 320l-153.6 0c-8.533333 0-17.066667-8.533333-17.066667-17.066667 0-8.533333 8.533333-17.066667 17.066667-17.066667l153.6 0c8.533333 0 17.066667 8.533333 17.066667 17.066667C814.933333 311.466667 806.4 320 797.866667 320z" p-id="20376"></path><path d="M891.733333 55.466667l-362.666667 0c8.533333 0 17.066667-8.533333 17.066667-17.066667 0-8.533333-8.533333-17.066667-17.066667-17.066667l-38.4 0c-8.533333 0-17.066667 8.533333-17.066667 17.066667 0 8.533333 8.533333 17.066667 17.066667 17.066667L132.266667 55.466667c-21.333333 0-38.4 17.066667-38.4 38.4s17.066667 38.4 38.4 38.4l763.733333 0c21.333333 0 38.4-17.066667 38.4-38.4S913.066667 55.466667 891.733333 55.466667z" p-id="20377"></path></svg>