<?xml version="1.0" standalone="no"?><!DOCTYPE svg PUBLIC "-//W3C//DTD SVG 1.1//EN" "http://www.w3.org/Graphics/SVG/1.1/DTD/svg11.dtd"><svg t="1543240074719" class="icon" style="" viewBox="0 0 1024 1024" version="1.1" xmlns="http://www.w3.org/2000/svg" p-id="6391" xmlns:xlink="http://www.w3.org/1999/xlink" width="100" height="100"><defs><style type="text/css"></style></defs><path d="M895 97.996H125c-34.8 0-63 32.2-63 72v624c0 39.8 28.2 72 63 72h770c34.8 0 63-32.2 63-72v-624c0-39.8-28.2-72-63-72z m-513 320v-128h256v128H382z m256 64v128H382v-128h256z m-512-192h192v128H126v-128z m0 192h192v128H126v-128z m0 320v-128h192v128H126z m256 0v-128h256v128H382z m512 0H702v-128h192v128z m0-192H702v-128h192v128z m-192-192v-128h192v128H702z" p-id="6392"></path></svg>