<?xml version="1.0" standalone="no"?><!DOCTYPE svg PUBLIC "-//W3C//DTD SVG 1.1//EN" "http://www.w3.org/Graphics/SVG/1.1/DTD/svg11.dtd"><svg t="1542135821905" class="icon" style="" viewBox="0 0 1024 1024" version="1.1" xmlns="http://www.w3.org/2000/svg" p-id="1106" xmlns:xlink="http://www.w3.org/1999/xlink" width="200" height="200"><defs><style type="text/css"></style></defs><path d="M761.87 126.686c-202.244-40.16-246.746-114.571-246.746-114.571s-120.117 91.894-234.447 114.571c-114.571 22.672-167.030 10.371-167.030 10.371s-0.121 230.588-0.121 458.156 402.561 403.766 402.561 403.766 401.236-182.466 401.236-403.766c0-227.571 0.843-458.156 0.843-458.156s-41.847 12.303-156.297-10.371zM515.726 923.604s-340.453-150.146-340.453-345.156 0.603-384.832 0.603-384.832 33.646 10.734 133.985-8.805c100.339-19.536 206.827-92.86 206.827-92.86s37.868 58.37 215.269 92.86c100.339 19.536 124.215 8.805 124.215 8.805s0.603 189.825 0.603 384.832c0 189.582-341.056 345.156-341.056 345.156z" p-id="1107"></path><path d="M742.452 299.142l-295.83 295.95-157.381-157.381-58.49 58.37 215.872 215.872 354.202-354.321-58.37-58.49z" p-id="1108"></path></svg>