<?xml version="1.0" standalone="no"?><!DOCTYPE svg PUBLIC "-//W3C//DTD SVG 1.1//EN" "http://www.w3.org/Graphics/SVG/1.1/DTD/svg11.dtd"><svg t="1542066506191" class="icon" style="" viewBox="0 0 1024 1024" version="1.1" xmlns="http://www.w3.org/2000/svg" p-id="6538" xmlns:xlink="http://www.w3.org/1999/xlink" width="200" height="200"><defs><style type="text/css"></style></defs><path d="M887.5 925H587.1c-21 0-37.5-16.5-37.5-37.5V587.1c0-21 16.5-37.5 37.5-37.5h300.4c21 0 37.5 16.5 37.5 37.5v300.4c0 21-16.5 37.5-37.5 37.5zM744 495.5c-12 12-31.5 12-42.8 0l-172.7-172c-12-12-12-31.5 0-42.8l172-172c12-12 31.5-12 42.8 0l172 172c12 12 12 31.5 0 42.8L744 495.5zM436.9 925H136.5c-21 0-37.5-16.5-37.5-37.5V587.1c0-21 16.5-37.5 37.5-37.5h300.4c21 0 37.5 16.5 37.5 37.5v300.4c0.1 21-16.5 37.5-37.5 37.5z m0-450.5H136.5c-21 0-37.5-16.5-37.5-37.5V136.5c0-21 16.5-37.5 37.5-37.5h300.4c21 0 37.5 16.5 37.5 37.5v300.4c0.1 21-16.5 37.6-37.5 37.6z m0 0" p-id="6539"></path></svg>