<?xml version="1.0" standalone="no"?><!DOCTYPE svg PUBLIC "-//W3C//DTD SVG 1.1//EN" "http://www.w3.org/Graphics/SVG/1.1/DTD/svg11.dtd"><svg t="1541785039949" class="icon" style="" viewBox="0 0 1024 1024" version="1.1" xmlns="http://www.w3.org/2000/svg" p-id="5500" xmlns:xlink="http://www.w3.org/1999/xlink" width="200" height="200"><defs><style type="text/css"></style></defs><path d="M788.626286 531.748571c6.144 0 12.434286 0.292571 18.578285 1.024 4.973714-23.990857 7.460571-48.566857 7.460572-73.142857 0-199.094857-161.353143-360.448-360.448-360.448S93.622857 260.681143 93.622857 459.776s161.353143 360.448 360.448 360.448c65.682286 0.146286 130.194286-17.846857 186.514286-51.931429-39.789714-81.773714-5.558857-180.224 76.214857-220.013714 22.381714-10.825143 46.957714-16.530286 71.826286-16.530286z m-216.795429 51.931429c-12.141714 31.012571-36.571429 55.442286-67.437714 67.730286-7.021714 2.779429-14.189714 4.973714-21.504 6.582857v28.964571c0 16.091429-13.165714 29.257143-29.257143 29.257143s-29.257143-13.165714-29.257143-29.257143v-29.257143c-13.897143-3.218286-27.209143-8.923429-39.204571-16.676571-34.523429-22.089143-56.32-59.392-58.660572-100.352-0.877714-16.091429 11.410286-29.988571 27.648-30.866286 16.091429-0.877714 29.988571 11.410286 30.866286 27.648 1.316571 22.089143 13.165714 42.276571 31.744 54.272 19.456 12.434286 42.861714 14.189714 66.121143 5.12 15.798857-6.290286 28.233143-18.870857 34.523428-34.669714 7.021714-17.846857 6.582857-33.938286-1.170285-49.152-11.264-22.235429-38.034286-41.252571-69.778286-49.590857-43.008-11.264-72.118857-31.012571-86.601143-58.953143-8.484571-16.384-15.798857-43.739429-1.901714-81.042286 10.093714-27.209143 31.744-48.566857 58.953143-58.368 2.486857-0.877714 4.973714-1.609143 7.314285-2.340571v-29.549714c0-16.091429 13.165714-29.257143 29.257143-29.257143s29.257143 13.165714 29.257143 29.257143v29.549714c4.534857 1.316571 9.069714 3.072 13.458286 4.973714 23.405714 10.678857 42.130286 29.696 52.224 53.248 6.290286 14.921143-0.877714 32.036571-15.798857 38.326857-14.774857 6.144-31.744-0.585143-38.034286-15.213714-7.606857-17.846857-22.966857-26.038857-38.619429-26.770286-0.731429 0-1.609143 0.146286-2.486857 0.146286s-1.609143 0-2.340571-0.146286c-4.973714 0.292571-9.947429 1.170286-14.628572 2.925715-11.117714 3.949714-19.894857 12.580571-23.990857 23.552-7.753143 20.918857-2.633143 30.573714-1.024 33.645714 6.436571 12.141714 23.990857 22.674286 49.590857 29.257143 48.128 12.580571 88.064 42.422857 107.081143 79.579428 15.506286 30.573714 16.676571 64.073143 3.657143 97.426286z" p-id="5501"></path><path d="M880.493714 643.218286c-7.314286-12.726857-7.314286-28.379429 0-41.106286l-56.32-32.475429c-11.410286 19.748571-36.571429 26.477714-56.173714 15.067429-6.290286-3.657143-11.410286-8.777143-15.067429-15.067429l-56.32 32.475429c11.410286 19.748571 4.681143 44.909714-15.067428 56.173714-6.290286 3.657143-13.312 5.558857-20.626286 5.558857v65.097143c22.674286 0 41.106286 18.432 41.106286 41.106286 0 7.168-1.901714 14.336-5.558857 20.626286l56.32 32.475428c11.410286-19.748571 36.571429-26.477714 56.173714-15.067428 6.290286 3.657143 11.410286 8.777143 15.067429 15.067428l56.32-32.475428c-11.410286-19.748571-4.681143-44.909714 15.067428-56.173715 6.290286-3.657143 13.312-5.558857 20.626286-5.558857v-65.097143c-14.482286 0-28.086857-7.899429-35.547429-20.626285z m-91.867428 93.330285c-22.235429 0-40.228571-17.993143-40.228572-40.228571s17.993143-40.228571 40.228572-40.228571 40.228571 17.993143 40.228571 40.228571c-0.146286 22.235429-17.993143 40.228571-40.228571 40.228571z" p-id="5502"></path></svg>