<?xml version="1.0" standalone="no"?><!DOCTYPE svg PUBLIC "-//W3C//DTD SVG 1.1//EN" "http://www.w3.org/Graphics/SVG/1.1/DTD/svg11.dtd"><svg t="1523021133195" class="icon" style="" viewBox="0 0 1024 1024" version="1.1" xmlns="http://www.w3.org/2000/svg" p-id="1787" xmlns:xlink="http://www.w3.org/1999/xlink" width="48" height="48"><defs><style type="text/css"></style></defs><path d="M374.646214 128.829134c21.75242 2.581802 42.819225 12.317537 63.757093 20.033265 17.613146 6.492878 33.988092 16.887622 51.944045 21.744234 24.505114 6.599302 47.072085-1.36816 67.488068-16.228613 29.426193-21.393239 61.686944-31.389918 98.429776-23.299659 36.710087 8.081049 54.224995 38.160111 40.816615 73.606415-6.631024 17.532305-15.528672 34.273595-24.180726 50.973951-23.283286 44.897559-56.098669 73.003687-111.203708 64.929802-17.775852-2.614547-36.269042-0.407276-54.43682-0.407276v-0.008186c-26.151613 0-52.367695-1.001817-78.470189 0.269129-28.219715 1.360997-50.444902-9.637498-65.10888-32.089859-17.353227-26.542516-34.168194-54.03773-46.452985-83.122139-17.809621-42.184775 12.104689-81.778538 57.417711-76.401064z m392.919904 766.80836c-85.785805-3.445472-171.815157-0.822738-257.748318-0.822738-84.46574 0-169.013345-2.289136-253.381872 0.700964-69.834508 2.484587-118.698402-65.338101-110.60098-118.66668 17.125029-112.612801 45.769416-221.926462 109.346407-318.580802 31.479969-47.845705 71.806419-86.2422 131.407866-96.759741 14.192234-2.50096 28.954449-2.289136 43.455721-2.362814 55.349609-0.24457 110.747313 1.360997 166.015057-0.480954 61.816904-2.069125 109.802802 23.046902 148.728347 68.530816 56.228629 65.687048 85.150332 144.589073 107.374496 226.269374 9.890254 36.335556 16.407692 73.581856 24.619723 110.380969 14.158465 63.59541-40.180118 134.562718-109.216447 131.791606zM623.856066 607.063099c-16.3422-0.11461-32.668027-0.024559-51.732222-0.024559 4.985548-9.596566 8.098445-15.984043 11.58485-22.184255 16.374946-29.075199 32.961716-58.053184 49.287543-87.186712 7.93574-14.19121 13.458523-29.263487-4.43194-39.748282-17.792225-10.42749-28.333302 0.732687-36.415374 15.535834-4.188392 7.642051-8.522094 15.19405-12.82305 22.778796-21.067828 37.043684-42.135656 74.095555-64.262606 112.988354-3.926426-5.287423-6.353708-7.910157-8.081049-10.94119-24.423249-42.892903-48.733934-85.85846-73.141834-128.767735-7.93574-13.954827-19.325138-20.415982-34.330899-11.649318-13.964036 8.154727-14.175861 20.839631-7.071046 33.996279 7.575536 14.053064 15.576767 27.869744 23.364127 41.817408 13.213953 23.675212 26.396183 47.365774 40.897455 73.354681-20.936845 0-37.654598 0.098237-54.372351-0.032746-16.830317-0.113587-31.168883 3.991917-33.3035 23.496134-1.694595 15.519462 11.42112 24.87248 33.710776 25.027 28.204365 0.210801 56.408731 0.048095 85.345783 0.048095v29.458939c-30.892591 0-60.660568-1.319042-90.184998 0.757246-9.54847 0.661056-22.208814 8.065699-26.851555 16.164145-8.472975 14.729469 4.756327 28.953426 25.694195 29.255301 30.355355 0.423649 60.709687 0.097214 92.694146 0.097214 0 22.811542-0.147356 42.331108 0.049118 61.850673 0.12996 14.745842 7.918343 23.454178 22.599718 23.813359 14.956643 0.382717 22.337751-8.717546 23.478737-23.096021 0.390903-5.051039 0.194428-10.16757 0.211825-15.250332 0.12996-47.300282 0.12996-47.28391 48.553832-47.300283 16.016789-0.008186 32.603559 2.39556 47.838542-1.059122 8.847505-2.012843 20.155039-12.407588 22.12695-20.913308 3.094478-13.46671-7.088442-23.161512-21.75242-23.959692-15.234983-0.831948-30.567179-0.341784-45.850258-0.37453-16.375969-0.032746-32.733519 0-49.14121 0v-29.458939c30.04427 0 58.379619-0.016373 86.730317 0.008187 16.244986 0.024559 30.209022-4.831029 30.665417-23.291473 0.491187-19.817348-14.027481-25.079188-31.087019-25.209148z" p-id="1788"></path></svg>