<?xml version="1.0" standalone="no"?><!DOCTYPE svg PUBLIC "-//W3C//DTD SVG 1.1//EN" "http://www.w3.org/Graphics/SVG/1.1/DTD/svg11.dtd"><svg t="1523021223475" class="icon" style="" viewBox="0 0 1024 1024" version="1.1" xmlns="http://www.w3.org/2000/svg" p-id="2059" xmlns:xlink="http://www.w3.org/1999/xlink" width="48" height="48"><defs><style type="text/css"></style></defs><path d="M514.048 21.313c-270.308 0-490.223 219.915-490.223 490.223s219.915 490.223 490.223 490.223c270.308 0 490.223-219.915 490.223-490.223s-219.915-490.223-490.223-490.223zM792.835 787.046c0 10.923-8.929 19.852-19.852 19.852l-209.060 0.164-3.154-158.857-97.266-0.245-0.068 159.102-208.309-0.164c-10.923 0-19.852-8.929-19.852-19.852v-256.97c0-10.923 8.929-19.852 19.852-19.852s19.852 8.929 19.852 19.852v237.118h148.821v-139.346c0-3.973 1.269-7.646 3.386-10.677 3.495-5.379 9.53-8.971 16.398-8.971l139.851 0.341c2.963 0 5.748 0.723 8.274 1.911 6.923 2.771 11.851 9.517 11.851 17.394v139.509l149.572-0.164v-237.118c0-10.923 8.929-19.852 19.852-19.852s19.852 8.929 19.852 19.852v256.97zM347.901 550.557v-53.357h53.357v53.357h-53.357zM832.813 487.888c-7.127 8.274-19.729 9.202-28.003 2.076l-291.322-228.884-291.334 229.703c-8.766 6.499-21.271 4.642-27.771-4.124s-4.642-21.271 4.124-27.771l303.172-239.042c5.748-4.26 13.079-4.875 19.306-2.349 2.171 0.791 4.26 1.925 6.116 3.522l303.636 238.879c8.274 7.127 9.202 19.729 2.076 27.989z" p-id="2060"></path></svg>