<?xml version="1.0" standalone="no"?><!DOCTYPE svg PUBLIC "-//W3C//DTD SVG 1.1//EN" "http://www.w3.org/Graphics/SVG/1.1/DTD/svg11.dtd"><svg t="1523096383171" class="icon" style="" viewBox="0 0 1026 1024" version="1.1" xmlns="http://www.w3.org/2000/svg" p-id="2888" xmlns:xlink="http://www.w3.org/1999/xlink" width="48.09375" height="48"><defs><style type="text/css"></style></defs><path d="M295.65363 680.619284" p-id="2889"></path><path d="M433.205597 770.286362c0-29.884306 7.500664-52.266935 7.500664-82.090548L283.287397 688.195815l0-89.532542 164.918518 0 0-82.090548L283.287397 516.572725l0-97.034218 149.918201 0L283.287397 255.3564l119.908462 0 105.029532 104.473178 97.399389-104.473178 119.911497 0L575.619087 419.537495l149.916177 0 0 37.325288c7.499653 0 22.504016 0 30.00468 0 104.967827 0 187.428603 44.766271 247.384352 119.355143 0-14.881965 0-29.824624 0-52.206242 7.499653-283.598955-217.374613-507.489992-494.699918-507.489992-287.965828 0-497.283423 217.557704-505.277726 503.799847-3.996645 251.869577 197.942683 503.677449 497.773015 503.677449 15.004363 0 37.447686 0 52.45205 0C485.716317 964.293093 433.205597 874.758528 433.205597 770.286362z" p-id="2890"></path><path d="M755.540957 516.571713c-142.412478 0-254.820276 111.91416-254.820276 253.713638s112.407798 253.713638 254.820276 253.713638c142.41349 0 254.884004-111.91416 254.884004-253.713638S897.954447 516.571713 755.540957 516.571713zM905.459157 815.051622l-97.403435 0 0 97.034218-90.024157 0L718.031566 807.610639 613.127467 807.610639l0-82.091559 104.903088 0 0-97.033206 90.024157 0 0 97.033206 97.403435 0L905.458146 815.051622z" p-id="2891"></path></svg>