<?xml version="1.0" standalone="no"?><!DOCTYPE svg PUBLIC "-//W3C//DTD SVG 1.1//EN" "http://www.w3.org/Graphics/SVG/1.1/DTD/svg11.dtd"><svg t="1547096940836" class="icon" style="" viewBox="0 0 1024 1024" version="1.1" xmlns="http://www.w3.org/2000/svg" p-id="1132" xmlns:xlink="http://www.w3.org/1999/xlink" width="200" height="200"><defs><style type="text/css"></style></defs><path d="M896 682.666667 128 682.666667 128 170.666667 896 170.666667M896 85.333333 128 85.333333C80.64 85.333333 42.666667 123.306667 42.666667 170.666667L42.666667 682.666667C42.666667 729.6 81.066667 768 128 768L426.666667 768 426.666667 853.333333 341.333333 853.333333 341.333333 938.666667 682.666667 938.666667 682.666667 853.333333 597.333333 853.333333 597.333333 768 896 768C942.933333 768 981.333333 729.6 981.333333 682.666667L981.333333 170.666667C981.333333 123.306667 942.933333 85.333333 896 85.333333Z" p-id="1133"></path></svg>