<?xml version="1.0" standalone="no"?><!DOCTYPE svg PUBLIC "-//W3C//DTD SVG 1.1//EN" "http://www.w3.org/Graphics/SVG/1.1/DTD/svg11.dtd"><svg t="1523021198239" class="icon" style="" viewBox="0 0 1024 1024" version="1.1" xmlns="http://www.w3.org/2000/svg" p-id="1921" xmlns:xlink="http://www.w3.org/1999/xlink" width="48" height="48"><defs><style type="text/css"></style></defs><path d="M392.171356 608.501868c-39.797401 0-77.456093-4.90266-106.041128-13.802354-6.376221-1.986237-12.223393-4.1536-17.516956-6.481621l0 41.001833c1.905396 2.669806 11.255345 10.0591 35.543517 16.584724 24.245194 6.517437 55.503105 10.103102 88.014566 10.103102 32.520671 0 63.780629-3.589758 88.024799-10.103102 24.290219-6.525624 33.636075-13.919011 35.536354-16.584724L515.732509 588.219939c-5.294586 2.330068-11.134595 4.493338-17.509792 6.479575C469.639728 603.599208 431.976944 608.501868 392.171356 608.501868z" p-id="1922"></path><path d="M392.171356 693.092451c-39.790238 0-77.452-4.90266-106.039082-13.800307-6.378268-1.984191-12.225439-4.151553-17.519002-6.481621l0 41.007973c1.902326 2.669806 11.248182 10.06524 35.534308 16.59291 24.242124 6.517437 55.506175 10.107195 88.024799 10.107195 32.527834 0 63.794955-3.591805 88.036056-10.107195 24.281009-6.52767 33.621748-13.921058 35.525098-16.59291l0-41.003879c-5.294586 2.328022-11.134595 4.493338-17.512862 6.477528C469.633588 688.189791 431.971827 693.092451 392.171356 693.092451z" p-id="1923"></path><path d="M392.171356 524.104689c-39.790238 0-77.452-4.898567-106.039082-13.795191-6.378268-1.986237-12.222369-4.152577-17.519002-6.481621l0 40.790008c1.898233 2.665713 11.237949 10.061147 35.534308 16.594957 24.242124 6.515391 55.504128 10.107195 88.024799 10.107195 32.527834 0 63.794955-3.591805 88.036056-10.107195 24.296359-6.53381 33.634028-13.930267 35.525098-16.594957l0-40.787962c-5.294586 2.326998-11.134595 4.493338-17.509792 6.476505C469.636658 519.206122 431.974897 524.104689 392.171356 524.104689z" p-id="1924"></path><path d="M619.42822 320.816726c32.519648 0 63.780629-3.587712 88.024799-10.102079 21.654182-5.820566 31.435966-12.32777 34.649148-15.561417-3.214205-3.233648-12.994965-9.740852-34.649148-15.558347-24.243147-6.516414-55.504128-10.102079-88.024799-10.102079s-63.780629 3.584642-88.025822 10.102079c-21.654182 5.817496-31.43392 12.3247-34.645055 15.558347 3.212158 3.233648 12.990872 9.741875 34.648125 15.561417C555.650661 317.229015 586.911642 320.816726 619.42822 320.816726z" p-id="1925"></path><path d="M392.171356 486.923882c32.520671 0 63.782675-3.588735 88.024799-10.102079 21.658276-5.820566 31.434943-12.328793 34.649148-15.562441-3.214205-3.233648-12.990872-9.740852-34.649148-15.558347-24.24417-6.516414-55.504128-10.105149-88.024799-10.105149-32.511461 0-63.769372 3.588735-88.014566 10.102079-21.656229 5.820566-31.438013 12.32777-34.656311 15.561417 3.216251 3.236718 13.000082 9.741875 34.656311 15.562441C328.401983 483.334123 359.659895 486.923882 392.171356 486.923882z" p-id="1926"></path><path d="M619.42822 610.44001l-0.300852 0c-23.079648 0-45.654806-1.679245-66.209958-4.881171l0 47.497781c20.140713 3.535523 42.908252 5.395894 66.51081 5.395894 32.519648 0 63.780629-3.587712 88.024799-10.101055 24.275893-6.525624 33.626865-13.910824 35.536354-16.584724L742.989373 590.164221c-5.293563 2.328022-11.137665 4.491291-17.512862 6.477528C696.891476 605.539396 659.228691 610.44001 619.42822 610.44001z" p-id="1927"></path><path d="M620.272447 526.376429c-23.585161 0-46.533826-1.734504-67.350944-5.045923l0 46.546106c20.107967 3.527336 42.810015 5.378497 66.216097 5.378497l0.279363 0c32.531927 0 63.792908-3.587712 88.036056-10.101055 24.287149-6.52767 33.633005-13.916964 35.536354-16.58677l0-40.111556c-5.070482 2.189875-10.628058 4.230348-16.665565 6.113231C697.726493 521.471722 660.063709 526.376429 620.272447 526.376429z" p-id="1928"></path><path d="M506.231111 58.09207c-246.822478 0-446.911586 200.090131-446.911586 446.912609 0 246.823502 200.090131 446.912609 446.911586 446.912609 246.823502 0 446.912609-200.089108 446.912609-446.912609C953.144744 258.1822 753.054613 58.09207 506.231111 58.09207zM780.173251 470.961328l0 161.830759c0 8.396227-3.251044 20.797675-18.738783 32.202423-8.828063 6.497994-20.923542 12.164041-35.956933 16.84669-28.588105 8.895601-66.246797 13.798261-106.047268 13.798261-23.26589 0-45.915749-1.684362-66.51081-4.898567l0 24.093744c0 8.400321-3.251044 20.805862-18.735713 32.212656-8.829086 6.502088-20.927635 12.170181-35.960003 16.85283-28.582989 8.901741-66.245773 13.800307-106.051361 13.800307-39.796378 0-77.457116-4.898567-106.042151-13.800307-15.035438-4.682649-27.133987-10.350742-35.963073-16.85283-15.489786-11.405771-18.74083-23.812335-18.74083-32.212656l0-84.540442c0-0.014326 0-0.031722 0-0.050142 0-0.00614 0-0.014326 0-0.021489l0-84.538395c0-0.016373 0-0.031722 0-0.050142 0-0.00614 0-0.014326 0-0.021489l0-82.098833c0-0.332575 0.00921-0.661056 0.025583-0.98749-0.013303-0.428765-0.025583-0.852414-0.025583-1.26583 0-8.396227 3.251044-20.797675 18.7439-32.202423 8.829086-6.494924 20.926612-12.164041 35.960003-16.842597 28.588105-8.899694 66.248843-13.799284 106.042151-13.799284 23.367197 0 45.998637 1.691525 66.491367 4.888334L458.663746 291.353694c0-3.918239 1.215688-7.552 3.28379-10.55131 2.703575-5.754051 7.440459-11.936867 15.473413-17.847483 8.826016-6.499018 20.925588-12.168134 35.956933-16.84669 28.586059-8.900717 66.24782-13.799284 106.048291-13.799284s77.462233 4.901637 106.047268 13.799284c15.032368 4.678556 27.131941 10.347672 35.960003 16.84669 13.304004 9.792017 17.574261 20.322861 18.515702 28.41926 0.146333 0.938372 0.223081 1.90028 0.223081 2.87856l0 163.655314c0.558725 1.769296 0.861624 3.651157 0.861624 5.603625C781.034874 465.74349 780.800537 468.258777 780.173251 470.961328z" p-id="1929"></path><path d="M742.986303 337.723791c-5.294586 2.326998-11.135618 4.493338-17.510816 6.476505-28.585035 8.900717-66.246797 13.799284-106.047268 13.799284s-77.462233-4.901637-106.048291-13.799284c-6.383384-1.986237-12.233626-4.152577-17.531282-6.483668l0 40.781822c1.860371 2.647293 11.189853 10.064216 35.554774 16.612353 24.24417 6.515391 55.505152 10.102079 88.025822 10.102079s63.780629-3.588735 88.024799-10.102079c24.287149-6.528694 33.633005-13.916964 35.536354-16.585747l-0.002047 0L742.98835 337.723791z" p-id="1930"></path><path d="M619.42822 442.395736c-27.743878 0-54.44296-2.384303-77.760015-6.841825 9.103332 9.423627 11.249205 18.887163 11.249205 25.705452 0 1.726318-0.140193 3.623527-0.49221 5.644557 0.318248 1.36509 0.49221 2.787486 0.49221 4.249791l0 12.479219c20.343327 3.64604 43.414789 5.563716 67.354014 5.563716 32.509415 0 63.769372-3.590781 88.022753-10.110265 21.74014-5.845125 31.512714-12.378935 34.694173-15.604396l0-41.362037c-5.293563 2.329045-11.137665 4.493338-17.512862 6.478552C696.891476 437.494099 659.228691 442.395736 619.42822 442.395736z" p-id="1931"></path></svg>