<?xml version="1.0" standalone="no"?><!DOCTYPE svg PUBLIC "-//W3C//DTD SVG 1.1//EN" "http://www.w3.org/Graphics/SVG/1.1/DTD/svg11.dtd"><svg class="icon" width="48px" height="48.00px" viewBox="0 0 1024 1024" version="1.1" xmlns="http://www.w3.org/2000/svg"><path d="M604.628142 62.365396 408.110373 62.365396c-24.105001 0-43.375903 21.449521-43.375903 47.957245 0 26.566052 19.303648 48.079018 43.375903 48.079018l197.735503 0c22.889313 0 42.189891-21.511943 42.189891-48.079018C648.039861 83.809801 628.764865 62.365396 604.628142 62.365396L604.628142 62.365396 604.628142 62.365396 604.628142 62.365396zM818.015114 94.372368l-97.862865 0c0.995677 5.251607 1.568728 10.568706 1.568728 15.94925 0.029676 40.361243-29.249161 80.091106-64.082504 80.091106L356.993159 190.412724c-36.660968 0-65.979714-39.729863-65.979714-80.091106 0.034792-5.380544 0.608867-10.697643 1.603521-15.94925l-99.044784 0c-79.611176 0-99.174744 45.133943-99.174744 110.246917l0 644.970454c0 69.945025 28.007891 109.093651 105.187691 109.093651l612.408851 0c77.181847 0 114.698299-30.695093 114.698299-109.058858L926.692279 204.620307c0.005117-65.107857-35.120892-110.2418-108.678188-110.2418l0 0L818.01409 94.372368 818.015114 94.372368zM717.46914 731.180931 291.908838 731.180931c-15.686261 0-31.342846-19.241226-31.342846-34.952047 0-15.656585 13.250792-29.071106 28.938076-29.071106L713.851753 667.157779c15.681144 0 28.931936 12.19167 30.125111 29.071106C743.976864 711.944821 733.151307 731.180931 717.46914 731.180931L717.46914 731.180931 717.46914 731.180931 717.46914 731.180931zM719.201597 560.40443 293.632085 560.40443c-15.686261 0-25.675776-16.864086-25.675776-32.587186 0-15.715937 13.261025-31.432896 28.943193-31.432896l424.347684 0c15.686261 0 28.937053 14.562671 30.121018 31.432896C751.367181 543.535227 734.854089 560.40443 719.201597 560.40443L719.201597 560.40443 719.201597 560.40443 719.201597 560.40443zM719.201597 385.013841 293.632085 385.013841c-15.686261 0-25.675776-16.874319-25.675776-32.590256 0-15.71696 13.261025-31.432896 28.943193-31.432896l424.347684 0c15.686261 0 28.937053 14.567787 30.121018 31.432896C751.367181 368.139521 734.854089 385.013841 719.201597 385.013841L719.201597 385.013841 719.201597 385.013841 719.201597 385.013841zM719.201597 385.013841" /></svg>