<?xml version="1.0" standalone="no"?><!DOCTYPE svg PUBLIC "-//W3C//DTD SVG 1.1//EN" "http://www.w3.org/Graphics/SVG/1.1/DTD/svg11.dtd"><svg class="icon" width="48px" height="48.00px" viewBox="0 0 1024 1024" version="1.1" xmlns="http://www.w3.org/2000/svg"><path d="M874.526 4.5 147.741 4.5C89.16 4.5 41.5 52.16 41.5 110.741l0 802.979c0 58.582 47.66 106.242 106.241 106.242l726.785 0c58.582 0 106.241-47.66 106.241-106.242L980.767 110.741C980.768 52.16 933.108 4.5 874.526 4.5zM174.5 629.5l0-64 632 0 0 64L174.5 629.5zM806.5 721.5l0 64-632 0 0-64L806.5 721.5zM174.5 476.5l0-64 632 0 0 64L174.5 476.5zM557.5 324.5l0-64 249 0 0 64L557.5 324.5z" /></svg>