<?xml version="1.0" standalone="no"?><!DOCTYPE svg PUBLIC "-//W3C//DTD SVG 1.1//EN" "http://www.w3.org/Graphics/SVG/1.1/DTD/svg11.dtd"><svg t="1541785143622" class="icon" style="" viewBox="0 0 1024 1024" version="1.1" xmlns="http://www.w3.org/2000/svg" p-id="7202" xmlns:xlink="http://www.w3.org/1999/xlink" width="200" height="200"><defs><style type="text/css"></style></defs><path d="M694.271 396.01l-24.854-74.565c-82.851 16.57-115.99-57.996-74.565-107.706-16.57-24.854-33.14-33.14-66.281-41.425-33.14 49.711-132.561 24.854-124.276-49.711h-82.851c8.285 82.851-91.135 99.42-132.561 49.711-24.854 8.285-49.711 16.57-57.996 41.425 41.425 49.711 0 124.276-74.565 99.42-8.285 33.14-16.57 57.996-24.854 82.851 66.281 8.285 66.281 115.99 0 124.276l24.854 74.565c82.851-16.57 115.99 57.996 74.565 107.706 16.57 16.57 33.14 33.14 57.996 41.425 33.14-57.996 132.561-24.854 124.276 49.711h82.851c-8.285-82.851 91.135-99.42 132.561-49.711 16.57-16.57 49.711-16.57 57.996-49.711-33.14-49.711 0-124.276 82.851-99.42l24.854-74.565c-74.565-16.57-74.565-107.706 0-124.276zM362.869 578.281c-66.281 0-124.276-57.996-124.276-124.276s57.996-124.276 124.276-124.276c66.281 0 124.276 57.996 124.276 124.276 0 74.565-57.996 124.276-124.276 124.276z m629.663 132.561c0-16.57-8.285-24.854-8.285-41.425-49.711 8.285-57.996-33.14-33.14-57.996-8.285-8.285-16.57-16.57-33.14-24.854-24.854 24.854-74.565 8.285-66.281-33.14-16.57 0-33.14 0-41.425-8.285 0 41.425-57.996 49.711-74.565 16.57-8.285 8.285-24.854 8.285-33.14 24.854 16.57 24.854-8.285 66.281-49.711 49.711 0 8.285-8.285 16.57-8.285 33.14 33.14 8.285 33.14 66.281-8.285 66.281 0 16.57 8.285 24.854 8.285 41.425 49.711-8.285 57.996 33.14 33.14 66.281 8.285 8.285 16.57 16.57 33.14 24.854 24.854-24.854 74.565-8.285 66.281 33.14 16.57 0 33.14 0 41.425 8.285 0-41.425 57.996-49.711 74.565-16.57 8.285-8.285 24.854-8.285 33.14-24.854-16.57-24.854 8.285-66.281 49.711-49.711 8.285-8.285 8.285-24.854 16.57-33.14-41.425-24.854-41.425-74.565 0-74.565z m-190.555 74.565c-33.14-8.285-66.281-41.425-57.996-74.565s41.425-66.281 74.565-57.996c33.14 8.285 66.281 41.425 57.996 74.565 0 41.425-33.14 66.281-74.565 57.996z" p-id="7203"></path></svg>