<?xml version="1.0" standalone="no"?><!DOCTYPE svg PUBLIC "-//W3C//DTD SVG 1.1//EN" "http://www.w3.org/Graphics/SVG/1.1/DTD/svg11.dtd"><svg class="icon" width="48px" height="48.00px" viewBox="0 0 1024 1024" version="1.1" xmlns="http://www.w3.org/2000/svg"><path d="M512 121.698462c256.827077 0 465.053538 144.817231 465.053538 323.347692S768.866462 768.315077 512 768.315077c-5.907692 0-11.776-0.118154-17.644308-0.275692-54.272 41.944615-122.683077 75.027692-200.388923 93.302154-43.126154 10.200615-85.700923 14.729846-126.660923 14.729846-2.008615 0-4.056615 0-6.065231 0 53.090462-42.614154 94.601846-94.011077 121.344-149.819077-140.721231-55.611077-235.677538-160.649846-235.677538-281.206154C46.946462 266.515692 255.172923 121.698462 512 121.698462M268.445538 461.863385m-66.244923 0a1.682 1.682 0 1 0 132.489846 0 1.682 1.682 0 1 0-132.489846 0ZM512 461.863385m-66.244923 0a1.682 1.682 0 1 0 132.489846 0 1.682 1.682 0 1 0-132.489846 0ZM755.593846 461.863385m-66.244923 0a1.682 1.682 0 1 0 132.489846 0 1.682 1.682 0 1 0-132.489846 0Z" /></svg>