<?xml version="1.0" standalone="no"?><!DOCTYPE svg PUBLIC "-//W3C//DTD SVG 1.1//EN" "http://www.w3.org/Graphics/SVG/1.1/DTD/svg11.dtd"><svg t="1542125944798" class="icon" style="" viewBox="0 0 1025 1024" version="1.1" xmlns="http://www.w3.org/2000/svg" p-id="1924" xmlns:xlink="http://www.w3.org/1999/xlink" width="200.1953125" height="200"><defs><style type="text/css"></style></defs><path d="M762.541176 1024s9.035294-156.611765-33.129411-213.835294c-42.164706-60.235294-165.647059-30.117647-219.858824-96.376471-27.105882-33.129412-24.094118-66.258824-15.058823-90.352941 54.211765-39.152941 93.364706-111.435294 93.364706-192.752941 0-126.494118-87.341176-225.882353-195.764706-225.882353s-195.764706 102.4-195.764706 225.882353c0 78.305882 33.129412 147.576471 87.341176 189.741176 9.035294 30.117647 15.058824 66.258824-9.035294 96.376471-45.176471 51.2-177.694118 42.164706-228.894118 102.4C-8.470588 876.423529 0.564706 1024 0.564706 1024h761.97647zM693.270588 677.647059l36.141177-51.2c-21.082353-18.070588-36.141176-48.188235-36.141177-81.317647 0-54.211765 33.129412-93.364706 72.282353-93.364706 39.152941 0 72.282353 39.152941 72.282353 93.364706 0 33.129412-15.058824 66.258824-36.141176 81.317647l-18.070589 12.047059-6.023529 18.070588c-15.058824 42.164706-9.035294 87.341176 24.094118 123.482353 27.105882 33.129412 57.223529 42.164706 108.423529 54.211765 3.011765 0 3.011765 0 9.035294 3.011764 27.105882 6.023529 33.129412 6.023529 33.129412 6.02353 3.011765 3.011765 6.023529 18.070588 9.035294 39.152941 3.011765 21.082353 3.011765 45.176471 3.011765 66.258823v6.02353l60.235294 3.011764-15.058824-60.235294c-6.023529 0-15.058824 3.011765-27.105882 6.02353-9.035294 0-21.082353 3.011765-30.117647 3.011764-6.023529 0-12.047059 0-15.058824 3.011765l6.02353 63.247059s57.223529-6.023529 81.317647-12.047059c0 0 6.023529-105.411765-24.094118-147.57647-30.117647-42.164706-114.447059-21.082353-153.6-66.258824-18.070588-21.082353-18.070588-45.176471-12.047059-63.247059 39.152941-27.105882 63.247059-78.305882 63.247059-132.517647 0-87.341176-60.235294-156.611765-135.529412-156.611765s-135.529412 69.270588-135.529411 156.611765c6.023529 48.188235 30.117647 96.376471 66.258823 126.494118z m90.352941-499.952941C663.152941-6.023529 422.211765-54.211765 241.505882 66.258824c-15.058824 9.035294-18.070588 27.105882-9.035294 39.152941 9.035294 15.058824 27.105882 18.070588 39.152941 9.035294 153.6-105.411765 361.411765-60.235294 463.811765 93.364706 9.035294 12.047059 27.105882 18.070588 39.152941 9.035294s18.070588-27.105882 9.035294-39.152941z m-147.57647 48.188235l153.6 30.117647c15.058824 3.011765 33.129412-9.035294 33.129412-24.094118l15.058823-156.611764c3.011765-15.058824-9.035294-30.117647-24.094118-33.129412-15.058824 0-30.117647 9.035294-30.117647 27.105882l-15.058823 156.611765 33.129412-27.105882-153.6-30.117647c-15.058824-3.011765-30.117647 6.023529-33.129412 24.094117-3.011765 15.058824 6.023529 30.117647 21.082353 33.129412z m0 0" fill="" p-id="1925"></path></svg>